<svg xmlns="http://www.w3.org/2000/svg" style="display: none;">
    <symbol id="icon-18+" width="40" height="41" viewBox="0 0 40 41" fill="none"
        xmlns="http://www.w3.org/2000/svg">
        <path fill-rule="evenodd" clip-rule="evenodd"
            d="M20 38.8999C29.9411 38.8999 38 30.841 38 20.8999C38 10.9588 29.9411 2.8999 20 2.8999C10.0589 2.8999 2 10.9588 2 20.8999C2 30.841 10.0589 38.8999 20 38.8999ZM20 40.8999C31.0457 40.8999 40 31.9456 40 20.8999C40 9.85421 31.0457 0.899902 20 0.899902C8.9543 0.899902 0 9.85421 0 20.8999C0 31.9456 8.9543 40.8999 20 40.8999Z"
            fill="white" />
        <path
            d="M11.9178 15.0596H9.53603C9.50747 15.7725 8.5022 16.9874 7 16.9874V18.9493C8.29086 18.9493 9.13049 18.4702 9.38181 18.0824H9.49033V26.7402H11.9178V15.0596Z"
            fill="white" />
        <path
            d="M19.0647 26.8999C21.6921 26.8999 23.5941 25.4912 23.6056 23.5976C23.5941 22.1375 22.4746 20.9455 21.0695 20.7117V20.6318C22.2918 20.3809 23.16 19.3201 23.1715 18.0425C23.16 16.2345 21.4237 14.8999 19.0647 14.8999C16.6886 14.8999 14.9522 16.2345 14.9636 18.0425C14.9522 19.3201 15.8204 20.3809 17.0656 20.6318V20.7117C15.6376 20.9455 14.5181 22.1375 14.5295 23.5976C14.5181 25.4912 16.4144 26.8999 19.0647 26.8999ZM19.0647 25.0862C17.8824 25.0862 17.0884 24.3961 17.0998 23.4037C17.0884 22.3942 17.9223 21.6642 19.0647 21.6642C20.1899 21.6642 21.0181 22.3942 21.0295 23.4037C21.0181 24.3961 20.2299 25.0862 19.0647 25.0862ZM19.0647 19.8676C18.0708 19.8676 17.3626 19.2231 17.374 18.2991C17.3626 17.3923 18.0594 16.7592 19.0647 16.7592C20.0528 16.7592 20.744 17.3923 20.7554 18.2991C20.744 19.2231 20.0414 19.8676 19.0647 19.8676Z"
            fill="white" />
        <path
            d="M33 19.9588H30.1898V17.2497H28.2764V19.9588H25.4662V21.841H28.2764V24.5501H30.1898V21.841H33V19.9588Z"
            fill="white" />
    </symbol>

    <symbol id="icon-visa" viewBox="0 0 69 23" fill="none" xmlns="http://www.w3.org/2000/svg">
        <path
            d="M51.217 16.247H48.7c-.092-.432-.19-.855-.268-1.282-.033-.176-.09-.245-.293-.243-1.01.013-2.019.01-3.028.002-.153-.001-.213.048-.26.184-.139.406-.291.809-.447 1.21-.02.054-.09.128-.139.128-.91.008-1.82.006-2.755.006.17-.401.332-.784.496-1.166l3.52-8.198c.254-.592.635-.84 1.29-.84h2.21c.073.334.146.662.217.991l1.731 8.102c.075.345.162.689.243 1.033v.073zm-3.294-3.624-.797-3.734a9.65 9.65 0 0 0-.033-.006l-1.388 3.74h2.218zM40.252 5.867c.332.06.667.11.996.184.3.068.594.162.913.25l-.471 2.152c-.421-.12-.823-.26-1.237-.348-.565-.122-1.145-.169-1.71-.015-.23.063-.463.183-.644.335-.31.26-.315.633-.018.906.204.188.447.343.689.485.55.323 1.129.604 1.664.95.63.406 1.09.966 1.187 1.722.17 1.337-.336 2.39-1.487 3.136-.723.469-1.542.678-2.395.756a8.757 8.757 0 0 1-3.497-.388c-.076-.024-.15-.055-.225-.084-.022-.01-.042-.025-.076-.046l.488-2.228c.194.083.376.166.562.239.89.35 1.807.51 2.76.336.247-.046.5-.152.71-.29.455-.298.498-.858.084-1.208-.273-.23-.6-.4-.911-.585-.485-.289-1-.534-1.46-.857-.588-.414-1.014-.966-1.095-1.7-.12-1.098.297-1.99 1.16-2.683.751-.603 1.643-.87 2.593-.983.053-.006.105-.023.157-.036h1.263zM30.465 6.057l-.411.965c-1.296 3.017-2.593 6.034-3.883 9.053-.061.144-.136.182-.286.18-.817-.006-1.635-.009-2.453.002-.173.003-.23-.056-.27-.208-.692-2.638-1.397-5.272-2.082-7.911-.126-.485-.378-.815-.85-1.018-.756-.326-1.542-.554-2.343-.74l-.104-.025c.004-.306.004-.306.302-.306h4.293c.678 0 1.168.385 1.297 1.04.363 1.858.718 3.716 1.077 5.573l.057.277c.038-.068.063-.107.08-.148.889-2.195 1.778-4.39 2.662-6.586.048-.12.108-.16.24-.16.83.007 1.66.004 2.49.004.054 0 .108.005.184.008zM29.38 16.253 31.616 6.06h2.71l-.334 1.531c-.614 2.804-1.23 5.608-1.838 8.414-.042.195-.113.257-.32.253-.743-.014-1.486-.005-2.23-.005h-.222z"
            fill="#fff" />
    </symbol>

    <symbol id="icon-interac" viewBox="0 0 70 24" fill="none" xmlns="http://www.w3.org/2000/svg">
        <path
            d="M43.306 17.719a2.587 2.587 0 0 1-2.586 2.586H29.26a2.566 2.566 0 0 1-2.566-2.565V6.168a2.473 2.473 0 0 1 2.474-2.474h11.664a2.473 2.473 0 0 1 2.473 2.473V17.72z"
            fill="#EBAB1F" />
        <path
            d="M28.263 10.16v4.221l-.753.17v-4.222l.753-.17zm1.995.544c-.465.104-.75.628-.75.628v-.394l-.732.16v2.518a.804.804 0 0 1 .728.079v-1.23c.006-.589.175-.933.527-1.012.31-.07.427.161.421.518v1.923l.718-.162.005-1.917c.006-.939-.372-1.233-.917-1.11zm1.086-.183.411-.092v-.591l.728-.162v.59l.517-.117-.007.639-.518.116-.004 1.598c.004.196.038.317.257.267.085-.019.153-.04.231-.07l.002.6c-.181.086-.291.12-.44.154-.416.096-.776-.175-.776-.727l.003-1.659-.412.093.008-.639zm2.533 1.209c0 .067-.002.122.01.187.054.324.213.576.54.502.301-.067.4-.267.459-.487l.762-.171c-.08.488-.344 1.104-1.176 1.29-.746.167-1.197-.263-1.32-1-.136-.806.074-2.009 1.18-2.257.816-.183 1.197.3 1.302.924.042.248.04.432.025.612l-1.782.4zm1.059-.793a.66.66 0 0 0-.012-.138c-.045-.265-.19-.471-.513-.399-.333.075-.497.356-.527.772l1.052-.235zm2.523-.928c-.507.12-.75.473-.754 1.165L36.7 12.49l-.727.163V9.482l.701-.158c.01.078.026.313.025.57.118-.406.28-.614.76-.722v.837zm2.581 1.707-.004.001-.73.165c-.05-.091-.1-.236-.122-.338-.103.22-.245.471-.758.587-.545.122-.855-.249-.922-.607-.16-.846.446-1.256 1.067-1.415.224-.057.412-.09.624-.144l-.011-.19c-.005-.231-.058-.513-.448-.426-.348.078-.366.298-.397.458l-.742.167c.009-.51.232-1.003 1.092-1.196.673-.151 1.233.049 1.228.876v1.504s.018.254.046.376c.03.124.078.182.078.182zm-.857-1.237a3.98 3.98 0 0 0-.475.138c-.393.161-.525.344-.476.602.033.177.16.289.395.236.502-.113.546-.588.555-.926l.001-.05zm3.48-.404c-.042.61-.326 1.17-1.143 1.353-.7.157-1.155-.212-1.293-.94-.166-.881.086-2.083 1.112-2.313.897-.202 1.254.447 1.29.843l-.706.158c-.05-.233-.164-.459-.49-.385-.514.115-.556 1.006-.464 1.494.08.423.27.575.532.517.24-.054.378-.238.434-.563l.727-.164zm-11.935 5.392-1.03-.7v1.718a.095.095 0 1 1-.19 0l-.002-2.106a.442.442 0 0 0-.883 0l.001 3.668c0 .659.536 1.196 1.195 1.196h.079c.65 0 1.17-.527 1.17-1.177l.002-1.936c0-.254-.141-.51-.343-.663zm-2.986-.547a.34.34 0 1 0 .159.659l.514-.123v-.698l-.672.162zm0 .898a.34.34 0 1 0 .159.66l.514-.124v-.697l-.672.161zm-.25 1.308a.339.339 0 0 0 .409.25l.514-.123v-.697l-.672.161a.34.34 0 0 0-.251.41z"
            fill="#000" />
    </symbol>

    <symbol id="icon-mastercard" viewBox="0 0 69 23" fill="none" xmlns="http://www.w3.org/2000/svg">
        <path d="M15.195 7.297h-4.677v8.406h4.677V7.297z" fill="#FF5F00" />
        <path
            d="M10.815 11.5a5.337 5.337 0 0 1 2.041-4.203 5.346 5.346 0 1 0 0 8.406 5.337 5.337 0 0 1-2.041-4.203z"
            fill="#EB001B" />
        <path
            d="M21.506 11.5a5.345 5.345 0 0 1-8.649 4.203 5.348 5.348 0 0 0 0-8.406 5.346 5.346 0 0 1 8.65 4.203z"
            fill="#F79E1B" />
        <path
            d="M30.85 13.407V11.16c0-.859-.523-1.421-1.421-1.421-.45 0-.938.148-1.274.636-.261-.41-.636-.636-1.199-.636-.375 0-.75.113-1.046.523v-.449h-.785v3.593h.785v-1.984c0-.637.336-.938.859-.938.523 0 .785.336.785.938v1.984h.785v-1.984c0-.637.375-.938.859-.938.523 0 .784.336.784.938v1.984h.868zm11.642-3.593h-1.273V8.728h-.785v1.086h-.71v.71h.71v1.649c0 .824.336 1.308 1.234 1.308.336 0 .71-.113.972-.262l-.227-.675a1.256 1.256 0 0 1-.675.187c-.375 0-.524-.227-.524-.597v-1.61h1.274v-.71h.004zm6.663-.078c-.45 0-.75.226-.938.523v-.45h-.785v3.594h.785v-2.024c0-.597.262-.937.75-.937.148 0 .336.04.488.074l.227-.75c-.157-.03-.38-.03-.528-.03zm-10.068.374c-.375-.261-.899-.374-1.461-.374-.898 0-1.496.449-1.496 1.16 0 .597.45.937 1.234 1.046l.375.04c.41.073.637.187.637.374 0 .262-.301.45-.824.45-.523 0-.938-.188-1.2-.376l-.374.598c.41.3.972.449 1.535.449 1.046 0 1.648-.489 1.648-1.16 0-.637-.489-.973-1.234-1.086l-.375-.04c-.336-.038-.598-.113-.598-.335 0-.261.262-.41.676-.41.45 0 .898.188 1.125.301l.332-.636zm20.88-.374c-.448 0-.749.226-.936.523v-.45h-.785v3.594h.785v-2.024c0-.597.261-.937.75-.937.148 0 .335.04.488.074l.227-.741c-.153-.04-.376-.04-.528-.04zM49.94 11.61c0 1.086.75 1.871 1.91 1.871.523 0 .898-.113 1.273-.41l-.375-.636c-.3.226-.597.335-.937.335-.637 0-1.086-.449-1.086-1.16 0-.675.45-1.124 1.086-1.16.336 0 .636.114.937.336l.375-.636c-.375-.301-.75-.41-1.273-.41-1.16-.004-1.91.785-1.91 1.87zm7.26 0V9.815h-.785v.45c-.261-.337-.636-.524-1.125-.524-1.011 0-1.796.785-1.796 1.87 0 1.086.785 1.871 1.796 1.871.524 0 .899-.188 1.125-.523v.449h.785V11.61zm-2.882 0c0-.636.41-1.16 1.086-1.16.636 0 1.085.489 1.085 1.16 0 .637-.449 1.16-1.085 1.16-.672-.039-1.086-.527-1.086-1.16zm-9.392-1.874c-1.046 0-1.796.75-1.796 1.87 0 1.125.75 1.87 1.835 1.87.523 0 1.047-.148 1.46-.488l-.374-.562c-.3.227-.676.375-1.046.375-.489 0-.973-.227-1.086-.86h2.655v-.3c.035-1.155-.64-1.905-1.648-1.905zm0 .675c.488 0 .824.301.898.86h-1.87c.074-.485.41-.86.972-.86zm19.5 1.2V8.393h-.786v1.87c-.261-.336-.636-.523-1.125-.523-1.011 0-1.796.785-1.796 1.87 0 1.086.785 1.871 1.796 1.871.524 0 .899-.188 1.125-.523v.449h.785V11.61zm-2.883 0c0-.637.41-1.16 1.086-1.16.636 0 1.085.488 1.085 1.16 0 .636-.449 1.16-1.085 1.16-.676-.04-1.086-.528-1.086-1.16zm-26.275 0V9.813h-.785v.45c-.261-.337-.636-.524-1.125-.524-1.011 0-1.796.785-1.796 1.87 0 1.086.785 1.871 1.796 1.871.523 0 .898-.188 1.125-.523v.449h.785V11.61zm-2.917 0c0-.637.41-1.16 1.086-1.16.636 0 1.085.488 1.085 1.16 0 .636-.449 1.16-1.085 1.16-.676-.04-1.086-.528-1.086-1.16z"
            fill="#fff" />
    </symbol>

</svg>